<svg id="Layer_1" data-name="Layer 1" xmlns="http://www.w3.org/2000/svg" viewBox="0 0 3126.57 2171.18"><defs><style>.cls-1{fill:#204998;}</style></defs><polygon class="cls-1" points="241.14 1323.71 487.14 1569.71 366.57 1690.29 120.57 1444.29 0 1323.71 366.57 957.14 487.14 1077.71 241.14 1323.71"/><polygon class="cls-1" points="734.85 1310 980.86 1556 860.28 1676.57 493.71 1310 744.35 1059.36 388.35 703.36 387.21 461.08 864.92 938.79 985.49 1059.36 864.92 1179.93 734.85 1310"/><polygon class="cls-1" points="752.64 1781.72 632.07 1661.14 366.57 1926.64 363.18 2171.18 752.64 1781.72"/><text x="-830.43" y="-953.57"/><polygon class="cls-1" points="1420.41 1064.75 1420.41 1141.85 1289.57 1141.85 1289.57 1473.63 1194.94 1473.63 1194.94 1141.85 1064.1 1141.85 1064.1 1064.75 1420.41 1064.75"/><polygon class="cls-1" points="1787.81 1397.69 1787.81 1473.63 1471.22 1473.63 1471.22 1064.75 1780.22 1064.75 1780.22 1140.69 1565.27 1140.69 1565.27 1229.47 1755.1 1229.47 1755.1 1303.07 1565.27 1303.07 1565.27 1397.69 1787.81 1397.69"/><path class="cls-1" d="M2964,2295.77q40.3-17.52,62.21-50.52t21.9-78.56q0-45.57-21.61-78.86t-61.63-51.4q-40-18.11-94.33-18.11h-177V2427.2h94.62V2313.3h87l78.86,113.9h101.63Zm-33.88-76.52q-22.2,18.7-64.84,18.7h-77.1V2095.42h77.1q42.63,0,64.84,18.4t22.2,52.87Q2952.35,2200.56,2930.15,2219.25Z" transform="translate(-830.43 -953.57)"/><path class="cls-1" d="M3393.34,2295.77q40.3-17.52,62.21-50.52t21.9-78.56q0-45.57-21.61-78.86t-61.62-51.4q-40-18.11-94.34-18.11h-177V2427.2h94.62V2313.3h87l78.86,113.9H3485Zm-33.88-76.52q-22.2,18.7-64.84,18.7h-77.1V2095.42h77.1q42.65,0,64.84,18.4t22.2,52.87Q3381.66,2200.56,3359.46,2219.25Z" transform="translate(-830.43 -953.57)"/><path class="cls-1" d="M3774.17,2018.32h-93.46L3498.47,2427.2h97l36.22-87.62h189.83l36.22,87.62H3957ZM3662,2267.74l64.84-156.55,64.83,156.55Z" transform="translate(-830.43 -953.57)"/><polygon class="cls-1" points="1896.38 1694.08 1896.38 1708.93 1855.42 1708.93 1855.42 1813.54 1838.52 1813.54 1838.52 1708.93 1797.57 1708.93 1797.57 1694.08 1896.38 1694.08"/><polygon class="cls-1" points="2001.67 1798.69 2001.67 1813.54 1914.98 1813.54 1914.98 1694.08 1999.29 1694.08 1999.29 1708.93 1932.04 1708.93 1932.04 1745.62 1991.95 1745.62 1991.95 1760.12 1932.04 1760.12 1932.04 1798.69 2001.67 1798.69"/><path class="cls-1" d="M2947.13,2739l11.1,10.75a53.13,53.13,0,0,1-19.89,14,67.33,67.33,0,0,1-25.68,4.78,65.94,65.94,0,0,1-32.34-7.94,58.34,58.34,0,0,1-22.61-21.84,63.91,63.91,0,0,1,0-62.64,58.21,58.21,0,0,1,22.69-21.84,66.45,66.45,0,0,1,32.43-7.94,67.86,67.86,0,0,1,25.6,4.69,52.62,52.62,0,0,1,19.8,13.91l-11.1,10.76q-13.49-14.17-33.62-14.17a48.73,48.73,0,0,0-24.06,6,43.41,43.41,0,0,0-16.81,16.47,48.46,48.46,0,0,0,0,46.93,43.28,43.28,0,0,0,16.81,16.47,48.63,48.63,0,0,0,24.06,6A44.59,44.59,0,0,0,2947.13,2739Z" transform="translate(-830.43 -953.57)"/><polygon class="cls-1" points="2254.94 1694.08 2254.94 1813.54 2237.87 1813.54 2237.87 1760.29 2169.26 1760.29 2169.26 1813.54 2152.2 1813.54 2152.2 1694.08 2169.26 1694.08 2169.26 1745.45 2237.87 1745.45 2237.87 1694.08 2254.94 1694.08"/></svg>